<svg width="2457" height="2663" viewBox="0 0 2457 2663" fill="none" xmlns="http://www.w3.org/2000/svg">
<rect width="2457" height="2663" fill="#0C043D"/>
<circle cx="1228" cy="1096" r="912" fill="#4E3BC1"/>
<circle cx="1228" cy="1096" r="699" fill="#3F77B8"/>
<circle cx="1228" cy="1096" r="502" fill="#CA7558"/>
<circle cx="1228" cy="1096" r="295" fill="#EEAD6F"/>
<path d="M2243.73 1051.1L2226.49 1058.82L2228.52 1077.61L2215.84 1063.6L2198.6 1071.33L2208.01 1054.94L2195.33 1040.94L2213.82 1044.82L2223.22 1028.43L2225.24 1047.22L2243.73 1051.1Z" fill="#D9D9D9"/>
<path d="M2010.66 858.094L2001.59 866.484L2006.77 877.697L1995.99 871.67L1986.93 880.06L1989.33 867.945L1978.55 861.917L1990.81 860.457L1993.21 848.341L1998.39 859.554L2010.66 858.094Z" fill="#D9D9D9"/>
<path d="M2041.65 483.018L2047.06 487.868L2053.34 484.222L2050.4 490.866L2055.81 495.716L2048.58 494.972L2045.64 501.615L2044.12 494.512L2036.89 493.767L2043.18 490.121L2041.65 483.018Z" fill="#D9D9D9"/>
<path d="M1728.48 195.192L1725.91 207.274L1736.6 213.449L1724.32 214.74L1721.75 226.822L1716.73 215.538L1704.45 216.829L1713.62 208.565L1708.6 197.281L1719.3 203.457L1728.48 195.192Z" fill="#D9D9D9"/>
<path d="M1434.5 308.656L1435.49 327.52L1453.73 332.409L1436.1 339.179L1437.09 358.043L1425.2 343.362L1407.56 350.132L1417.85 334.289L1405.96 319.609L1424.21 324.498L1434.5 308.656Z" fill="#D9D9D9"/>
<path d="M987.909 92.451L998.651 107.99L1016.75 102.577L1005.29 117.594L1016.03 133.133L998.207 126.875L986.747 141.892L987.191 123.007L969.368 116.749L987.466 111.336L987.909 92.451Z" fill="#D9D9D9"/>
<path d="M805.722 405.5L814.901 413.765L825.598 407.589L820.574 418.872L829.753 427.137L817.469 425.846L812.445 437.129L809.877 425.048L797.594 423.757L808.29 417.581L805.722 405.5Z" fill="#D9D9D9"/>
<path d="M466.071 399.071L472.545 402.369L477.682 397.232L476.545 404.408L483.019 407.706L475.843 408.843L474.706 416.019L471.408 409.545L464.232 410.682L469.37 405.545L466.071 399.071Z" fill="#D9D9D9"/>
<path d="M258 707.517L276.477 711.444L285.922 695.085L287.897 713.871L306.374 717.799L289.117 725.482L291.092 744.269L278.452 730.231L261.195 737.914L270.64 721.555L258 707.517Z" fill="#D9D9D9"/>
<path d="M402 1086L413.747 1082.18L413.747 1069.83L421.007 1079.82L432.753 1076.01L425.493 1086L432.753 1095.99L421.007 1092.18L413.747 1102.17L413.747 1089.82L402 1086Z" fill="#D9D9D9"/>
<path fill-rule="evenodd" clip-rule="evenodd" d="M700.29 766.106C704.45 742.798 726.731 725 753.593 725C777.599 725 797.946 739.214 804.971 758.874C839.497 762.779 870.592 773.713 870.592 800C870.592 849.045 782.447 849.016 736.437 849.001C735.642 849 734.86 849 734.092 849C688.806 849 667.786 816.269 675.6 793.033C680.031 779.857 688.634 771.449 700.29 766.106Z" fill="#D9D9D9"/>
<path fill-rule="evenodd" clip-rule="evenodd" d="M1517.63 666.721C1517.72 598.376 1573.87 543 1643.11 543C1706.55 543 1758.99 589.475 1767.42 649.82C1825.07 666.598 1863.59 696.995 1863.59 731.707C1863.59 784.565 1850.16 801 1664.09 801C1478.02 801 1464.59 784.565 1464.59 731.707C1464.59 706.62 1484.71 683.788 1517.63 666.721Z" fill="#D9D9D9"/>
<rect x="1711" y="1040" width="50" height="217" fill="#EEAD6F"/>
<path fill-rule="evenodd" clip-rule="evenodd" d="M1806.91 1040.36L1735.77 915L1664.63 1040.36H1698.68L1635.59 1129.34H1835.59L1772.49 1040.36H1806.91Z" fill="#98C599"/>
<path d="M1158.75 1127.92C659.394 1172.49 450.416 1404.95 561 1747.5C671.585 2090.05 1068.38 2263.48 1315.5 2292.5C1562.62 2321.52 1857.5 2227 2009.5 1891.5C2161.5 1556 1947.59 1057.51 1158.75 1127.92Z" fill="#629162"/>
<path d="M1102 1375.5C969.508 1591.79 352 1679.5 636 2106C1155.15 2885.63 2287 2256.5 2139 1702C2007.91 1210.85 1160.5 1280 1102 1375.5Z" fill="#447844"/>
<path d="M378.498 2117.5C360 2569.5 1568.5 2651 1901.5 2258.5C2100.19 2024.3 1852 1838.5 1642 1778C1543.02 1749.48 1568.96 1686.32 1584.5 1619C1607 1521.5 1434.93 1639.32 1390.5 1661C792.97 1952.6 390.551 1823 378.498 2117.5Z" fill="#2E5F2E"/>
<rect x="1863.77" y="1391.41" width="119.678" height="419.351" fill="#C0765C"/>
<path fill-rule="evenodd" clip-rule="evenodd" d="M2061.63 1391.53L1923.93 1153.01L1786.22 1391.53H1852.13L1730 1560.83H2117.15L1995.02 1391.53H2061.63Z" fill="#98C599"/>
<rect x="548.043" y="1398.65" width="186.304" height="670.35" fill="#C0765C"/>
<path fill-rule="evenodd" clip-rule="evenodd" d="M893.934 1398.64L640.848 965L387.762 1398.64H509.442L284.979 1706.45H996.505L772.042 1398.64H893.934Z" fill="#98C599"/>
<path d="M1202.5 2135C814.999 2051.5 1102 2314 611.5 2251.5C120.999 2189 573.066 2519 998 2574C1422.93 2629 1736 2510 1925.5 2313.5C2057.39 2176.73 2154 1948.5 1652.22 1752.74C1495.36 1691.54 1744.53 1668.9 1688.47 1546.65C1645.64 1453.24 1402.95 1435.08 1350.84 1380.59C1298.73 1326.11 1575.69 1307.94 1515.73 1230.75C1488.89 1196.2 1274 1121.5 1274 1121.5C1274 1121.5 1232.5 1122 1220 1123.5C1220 1123.5 1362.58 1175.5 1405.6 1214.56C1482.91 1284.74 1285.89 1285.24 1140.27 1348.81C994.655 1412.38 1290.88 1437.67 1422.93 1525.89C1554.99 1614.11 1387.96 1637.46 1337.99 1705.57C1288.03 1773.68 1346.44 1835.3 1544.17 1917.03C1741.89 1998.76 1528.19 2205.18 1202.5 2135Z" fill="#A1DFFA"/>
</svg>